# xmcd
#
# Track frame offsets:
#	150
#	13823
#	33227
#	51732
#	69112
#	88830
#	104944
#	119293
#	134814
#
# Disc length: 2031
#
# Revision: 2
# Processed by: cddbd v1.5.1PL0 Copyright (c) Steve Scherf et al.
# Submitted via: audiograbber 1.82.00
# Normalized: r1:DSETVAR1
#
DISCID=8807ed09
DTITLE=Various Artist - CDX 310 January 2003
DYEAR=2003
DGENRE=Country
TTITLE0=Tammy COCHRAN - Love Won't Let Me
TTITLE1=Dan SEALS - Reminiscing
TTITLE2=Steve HOLY - Rock A Bye Heart
TTITLE3=Jimmy WAYNE - Stay Gone
TTITLE4=Marcel - Tennessee
TTITLE5=Phil VASSER - This Is God
TTITLE6=Leland MARTIN - Hey Love, No Fair
TTITLE7=SHINE ON - America, Our Home Sweet Home
TTITLE8=Christopher Michael JOHNSON - The Ride
EXTD=
EXTT0=
EXTT1=
EXTT2=
EXTT3=
EXTT4=
EXTT5=
EXTT6=
EXTT7=
EXTT8=
PLAYORDER=
